# xmcd CD database file
#
# Track frame offsets:
#	150
#	13790
#	27792
#	38747
#	53417
#	67635
#	77780
#	92850
#	103035
#	116177
#	127617
#	140055
#	153990
#	166925
#	181702
#	196837
#	223997
#	238367
#	253247
#	277765
#	292402
#	306475
#	321152
#	336230
#
# Disc length: 4653 seconds
#
# Revision: 0
# Processed by: cddbd v1.5.1PL2 Copyright (c) Steve Scherf et al.
# Submitted via: CDex 1.51
#
DISCID=5c122b18
DTITLE=Lionel Hampton - Flying Home - CD2
DYEAR=2003
DGENRE=Jazz
TTITLE0=Sweethearts On Parade
TTITLE1=Shufflin' At The Hollywood
TTITLE2=Wizzin' The Wiz
TTITLE3=The Jumpin' Jive
TTITLE4=Twelfth Street Rag
TTITLE5=When Lights Are Low
TTITLE6=One Sweet Letter From You
TTITLE7=Hot Mallets
TTITLE8=I Can't Get Started
TTITLE9=Gin For Christmas
TTITLE10=Dinah
TTITLE11=Central Avenue Breakdown
TTITLE12=Jack The Bellboy
TTITLE13=Hamp's Boogie Woogie
TTITLE14=Hey! Ba-Ba-Re-Bop
TTITLE15=Air Mail Special
TTITLE16=Cobb's Idea
TTITLE17=How High The Moon
TTITLE18=Three Minutes On 52nd Street
TTITLE19=Stardust (End)
TTITLE20=Red Top
TTITLE21=Mingus Fingers
TTITLE22=Midnight Sun
TTITLE23=Rag Mop
EXTD=YEAR: 2003
EXTT0=
EXTT1=
EXTT2=
EXTT3=
EXTT4=
EXTT5=
EXTT6=
EXTT7=
EXTT8=
EXTT9=
EXTT10=
EXTT11=
EXTT12=
EXTT13=
EXTT14=
EXTT15=
EXTT16=
EXTT17=
EXTT18=
EXTT19=
EXTT20=
EXTT21=
EXTT22=
EXTT23=
PLAYORDER=
